<svg width="30" height="30" viewBox="0 0 30 30" fill="none" xmlns="http://www.w3.org/2000/svg">
<path d="M3.54025 15.1901L3.54525 15.2101C3.86373 16.7206 4.53288 18.1352 5.49869 19.3396C6.4645 20.5439 7.69992 21.5044 9.10525 22.1434L15.0002 24.8234V21.6667H18.3336C20.5437 21.6667 22.6633 20.7888 24.2261 19.226C25.7889 17.6631 26.6669 15.5435 26.6669 13.3334V11.6667C26.6669 9.45659 25.7889 7.33697 24.2261 5.77417C22.6633 4.21137 20.5437 3.33339 18.3336 3.33339H11.6669C9.45677 3.33339 7.33716 4.21137 5.77436 5.77417C4.21155 7.33697 3.33358 9.45659 3.33358 11.6667V13.3334C3.33358 13.9667 3.40358 14.5801 3.53525 15.1667L3.54025 15.1901V15.1901ZM18.3336 30.0001L7.72691 25.1784C5.84585 24.3234 4.19212 23.0383 2.89917 21.4266C1.60622 19.8148 0.710253 17.9218 0.28358 15.9001C0.0947761 15.0576 -0.000246446 14.1968 0.000246045 13.3334V11.6667C0.000246045 8.57254 1.22941 5.60507 3.41733 3.41715C5.60526 1.22922 8.57272 6.10352e-05 11.6669 6.10352e-05H18.3336C21.4278 6.10352e-05 24.3952 1.22922 26.5832 3.41715C28.7711 5.60507 30.0002 8.57254 30.0002 11.6667V13.3334C30.0002 16.4276 28.7711 19.395 26.5832 21.583C24.3952 23.7709 21.4278 25.0001 18.3336 25.0001V30.0001Z" fill="#4382FF"/>
</svg>
